ply
format ascii 1.0
comment Created by Blender 2.69 (sub 0) - www.blender.org, source file: ''
element vertex 84
property float x
property float y
property float z
element face 152
property list uchar uint vertex_indices
end_header
0.787447 0.620816 -1.113452
0.248190 0.662454 -1.034934
0.524578 0.811805 -0.587714
0.949901 0.120816 -1.438369
1.248186 0.337530 -1.034934
1.375226 -0.188195 -1.113450
0.800966 0.662454 -0.140495
1.419004 -0.188195 -0.140499
-0.063207 0.620822 -0.587714
-0.369848 -0.188195 -1.034930
0.261709 0.620816 -0.061977
-0.326070 -0.188195 -0.061979
-0.199029 -0.713920 -0.140495
0.687034 -0.688190 0.262940
0.800966 -1.038844 -0.140495
0.099256 -0.497207 0.262940
0.261709 -0.997207 -0.061977
1.112364 -0.997212 -0.587714
0.787447 -0.997207 -1.113452
0.524578 -1.188195 -0.587714
0.248190 -1.038844 -1.034934
0.776566 0.911572 0.234793
0.237309 0.953210 0.313311
0.513697 1.102561 0.760531
0.939020 0.411572 -0.090123
1.237304 0.628286 0.313312
1.364345 0.102561 0.234795
0.790085 0.953210 1.207751
1.408123 0.102561 1.207747
-0.074089 0.911577 0.760531
-0.380729 0.102561 0.313315
0.250828 0.911572 1.286269
-0.336951 0.102561 1.286267
-0.209910 -0.423165 1.207751
0.676153 -0.397435 1.611185
0.790085 -0.748089 1.207751
0.088374 -0.206451 1.611185
0.250828 -0.706451 1.286269
1.101483 -0.706456 0.760531
0.776566 -0.706451 0.234793
0.513697 -0.897439 0.760531
0.237309 -0.748089 0.313311
1.283564 0.688697 -0.524126
0.744307 0.730335 -0.445608
1.020695 0.879686 0.001612
1.446018 0.188697 -0.849043
1.744302 0.405411 -0.445608
1.871343 -0.120314 -0.524124
1.297083 0.730335 0.448831
1.915121 -0.120314 0.448827
0.432909 0.688702 0.001612
0.126269 -0.120314 -0.445604
0.757826 0.688697 0.527349
0.170047 -0.120314 0.527348
0.297088 -0.646040 0.448831
1.183150 -0.620310 0.852266
1.297083 -0.970963 0.448831
0.595372 -0.429326 0.852266
0.757826 -0.929326 0.527349
1.608480 -0.929331 0.001612
1.283564 -0.929326 -0.524126
1.020695 -1.120314 0.001612
0.744307 -0.970963 -0.445608
0.262869 0.809012 -0.525738
-0.276388 0.850649 -0.447220
0.000000 1.000000 0.000000
0.425323 0.309011 -0.850654
0.723607 0.525725 -0.447220
0.850648 0.000000 -0.525736
0.276388 0.850649 0.447220
0.894426 0.000000 0.447216
-0.587786 0.809017 0.000000
-0.894426 0.000000 -0.447216
-0.262869 0.809012 0.525738
-0.850648 0.000000 0.525736
-0.723607 -0.525725 0.447220
0.162456 -0.499995 0.850654
0.276388 -0.850649 0.447220
-0.425323 -0.309011 0.850654
-0.262869 -0.809012 0.525738
0.587786 -0.809017 0.000000
0.262869 -0.809012 -0.525738
0.000000 -1.000000 0.000000
-0.276388 -0.850649 -0.447220
3 0 1 2
3 3 0 2
3 4 3 2
3 4 5 3
3 4 2 6
3 7 4 6
3 8 2 1
3 8 1 9
3 8 9 10
3 9 11 10
3 9 12 11
3 13 7 6
3 13 14 7
3 13 15 16
3 13 16 14
3 14 4 7
3 14 5 4
3 14 17 5
3 17 18 5
3 14 19 17
3 18 17 19
3 19 20 18
3 18 20 5
3 5 20 3
3 3 1 0
3 3 9 1
3 3 20 9
3 6 2 8
3 6 8 10
3 13 6 10
3 13 10 11
3 13 11 15
3 15 11 12
3 16 15 12
3 16 12 9
3 16 9 14
3 9 20 14
3 20 19 14
3 21 22 23
3 24 21 23
3 25 24 23
3 25 26 24
3 25 23 27
3 28 25 27
3 29 23 22
3 29 22 30
3 29 30 31
3 30 32 31
3 30 33 32
3 34 28 27
3 34 35 28
3 34 36 37
3 34 37 35
3 35 25 28
3 35 26 25
3 35 38 26
3 38 39 26
3 35 40 38
3 39 38 40
3 39 40 41
3 26 39 41
3 26 41 24
3 24 22 21
3 24 30 22
3 24 41 30
3 27 23 29
3 27 29 31
3 34 27 31
3 34 31 32
3 34 32 36
3 36 32 33
3 37 36 33
3 37 33 30
3 37 30 35
3 30 41 35
3 41 40 35
3 42 43 44
3 45 42 44
3 46 45 44
3 46 47 45
3 46 44 48
3 49 46 48
3 50 44 43
3 50 43 51
3 50 51 52
3 51 53 52
3 51 54 53
3 55 49 48
3 55 56 49
3 55 57 58
3 55 58 56
3 56 46 49
3 56 47 46
3 56 59 47
3 59 60 47
3 56 61 59
3 60 59 61
3 60 61 62
3 47 60 62
3 47 62 45
3 45 43 42
3 45 51 43
3 45 62 51
3 48 44 50
3 48 50 52
3 55 48 52
3 55 52 53
3 55 53 57
3 57 53 54
3 58 57 54
3 58 54 51
3 58 51 56
3 51 62 56
3 62 61 56
3 63 64 65
3 66 63 65
3 67 66 65
3 67 68 66
3 67 65 69
3 70 67 69
3 71 65 64
3 71 64 72
3 71 72 73
3 72 74 73
3 72 75 74
3 76 70 69
3 76 77 70
3 76 78 79
3 76 79 77
3 77 67 70
3 77 68 67
3 77 80 68
3 80 81 68
3 77 82 80
3 81 80 82
3 81 82 83
3 68 81 83
3 68 83 66
3 66 64 63
3 66 72 64
3 66 83 72
3 69 65 71
3 69 71 73
3 76 69 73
3 76 73 74
3 76 74 78
3 78 74 75
3 79 78 75
3 79 75 72
3 79 72 77
3 72 83 77
3 83 82 77
