ply
format ascii 1.0
comment Created by Blender 2.69 (sub 0) - www.blender.org, source file: ''
element vertex 32
property float x
property float y
property float z
element face 60
property list uchar uint vertex_indices
end_header
-1.072480 0.884048 -0.960938
-1.072480 -1.115952 -0.960938
-1.853228 -1.115952 -0.960938
0.927520 0.884048 -0.960938
0.927520 1.881874 -0.960938
0.927520 -1.115952 -0.960938
1.920450 0.884048 -0.960938
0.927520 -1.817605 -0.960938
-1.072480 -1.115952 -1.918123
-1.072480 -1.115952 1.039062
0.927520 -1.115952 1.039062
0.927520 -1.115952 1.927032
1.920450 0.884048 1.039062
1.920450 -1.115952 1.039062
1.920450 -1.115952 -0.960938
0.927520 0.884048 1.039062
0.927520 0.884048 1.927032
-1.072480 0.884048 1.927032
-1.072480 0.884048 1.039062
-1.072480 -1.115952 1.927032
0.927520 -1.817605 1.039062
-1.072480 -1.817605 1.039062
-1.072480 -1.817605 -0.960938
-1.072480 1.881874 1.039062
0.927520 1.881874 1.039062
-1.072480 1.881874 -0.960938
-1.853228 -1.115952 1.039062
-1.853228 0.884048 1.039062
-1.853228 0.884048 -0.960938
-1.072480 0.884048 -1.918123
0.927520 0.884048 -1.918123
0.927520 -1.115952 -1.918123
3 0 1 2
3 3 0 4
3 5 3 6
3 1 5 7
3 5 1 8
3 9 10 11
3 12 13 14
3 10 5 14
3 15 10 13
3 3 15 12
3 11 16 17
3 10 15 16
3 15 18 17
3 18 9 19
3 20 21 22
3 10 9 21
3 5 10 20
3 9 1 22
3 23 24 4
3 15 3 24
3 18 15 23
3 0 18 25
3 26 27 28
3 18 0 28
3 9 18 27
3 1 9 26
3 8 29 30
3 3 5 31
3 0 3 30
3 1 0 29
3 25 23 4
3 28 0 2
3 3 4 24
3 14 5 6
3 22 1 7
3 31 5 8
3 19 9 11
3 6 12 14
3 13 10 14
3 12 15 13
3 6 3 12
3 19 11 17
3 11 10 16
3 16 15 17
3 17 18 19
3 7 20 22
3 20 10 21
3 7 5 20
3 21 9 22
3 15 24 23
3 0 25 4
3 2 26 28
3 27 18 28
3 26 9 27
3 2 1 26
3 31 8 30
3 30 3 31
3 29 0 30
3 8 1 29
3 18 23 25
